<?xml version="1.0" standalone="no"?>
<!DOCTYPE svg PUBLIC "-//W3C//DTD SVG 20010904//EN"
 "http://www.w3.org/TR/2001/REC-SVG-20010904/DTD/svg10.dtd">
<svg version="1.0" xmlns="http://www.w3.org/2000/svg"
 width="512.000000pt" height="512.000000pt" viewBox="0 0 512.000000 512.000000"
 preserveAspectRatio="xMidYMid meet">

<g transform="translate(0.000000,512.000000) scale(0.100000,-0.100000)"
fill="#fff" stroke="none">
<path d="M1727 3019 c-175 -181 -326 -329 -335 -329 -9 0 -98 23 -197 50 -169
46 -181 48 -197 32 -21 -22 -728 -932 -723 -932 2 0 616 670 725 793 l36 40
159 -53 c88 -29 164 -56 168 -60 4 -4 -4 -177 -18 -385 -14 -208 -24 -380 -22
-382 2 -2 163 310 357 692 194 383 356 695 361 693 4 -2 80 -71 167 -155 l159
-152 58 35 c56 34 59 35 75 17 9 -10 216 -250 460 -533 243 -283 453 -526 467
-540 l24 -25 -24 55 c-13 30 -83 186 -156 346 -72 160 -131 295 -131 300 1 12
417 287 428 283 5 -2 175 -154 377 -337 201 -184 369 -332 371 -329 2 2 -25
87 -60 188 -36 101 -64 185 -62 186 1 1 146 -86 322 -195 175 -109 325 -201
332 -205 6 -5 12 -6 12 -3 0 7 -658 586 -666 586 -3 0 -46 -32 -95 -71 l-89
-70 -214 180 c-118 100 -219 181 -225 181 -6 0 -134 -76 -284 -169 -151 -93
-284 -174 -295 -180 -19 -10 -42 13 -263 263 l-242 275 -52 -40 c-28 -21 -56
-39 -61 -39 -5 0 -81 72 -169 159 l-160 159 -318 -329z"/>
</g>
</svg>
