<?xml version="1.0" standalone="no"?>
<!DOCTYPE svg PUBLIC "-//W3C//DTD SVG 20010904//EN"
 "http://www.w3.org/TR/2001/REC-SVG-20010904/DTD/svg10.dtd">
<svg version="1.0" xmlns="http://www.w3.org/2000/svg"
 width="481.000000pt" height="513.000000pt" viewBox="0 0 481.000000 513.000000"
 preserveAspectRatio="xMidYMid meet">

<g transform="translate(0.000000,513.000000) scale(0.100000,-0.100000)"
fill="#fff" stroke="none">
<path d="M3370 4526 l0 -593 -560 -319 -559 -319 -1 -641 0 -641 -475 -272
c-261 -149 -479 -271 -485 -271 -6 0 -224 122 -485 271 l-475 272 0 547 0 547
520 297 520 297 -24 42 c-14 23 -49 85 -79 137 -30 52 -59 94 -63 92 -5 -1
-275 -154 -601 -340 l-592 -337 0 -735 0 -735 559 -319 560 -319 0 -593 0
-594 160 0 160 0 0 594 0 593 475 272 c261 149 480 271 485 271 6 0 258 -142
562 -315 303 -174 557 -314 563 -313 7 2 296 165 643 363 l631 360 0 735 0
735 -559 319 -560 319 0 593 0 594 -160 0 -160 0 0 -594z m645 -1147 l475
-272 0 -547 0 -547 -475 -272 c-261 -149 -479 -271 -485 -271 -6 0 -224 122
-485 271 l-475 272 0 547 0 547 473 271 c259 149 478 271 485 271 6 1 226
-121 487 -270z"/>
</g>
</svg>
