<?xml version="1.0" standalone="no"?>
<!DOCTYPE svg PUBLIC "-//W3C//DTD SVG 20010904//EN"
 "http://www.w3.org/TR/2001/REC-SVG-20010904/DTD/svg10.dtd">
<svg version="1.0" xmlns="http://www.w3.org/2000/svg"
 width="512.000000pt" height="512.000000pt" viewBox="0 0 512.000000 512.000000"
 preserveAspectRatio="xMidYMid meet">

<g transform="translate(0.000000,512.000000) scale(0.100000,-0.100000)"
fill="#fff" stroke="none">
<path d="M445 5111 c-11 -5 -31 -21 -45 -36 -24 -25 -25 -33 -28 -168 -2 -77
-1 -155 2 -173 9 -45 49 -81 111 -99 129 -37 189 -159 134 -273 -25 -51 -83
-97 -135 -107 -48 -8 -81 -31 -100 -66 -21 -41 -21 -697 0 -738 19 -35 52 -58
100 -66 52 -10 110 -56 135 -107 54 -112 -5 -235 -129 -272 -70 -21 -85 -31
-104 -70 -14 -29 -16 -81 -16 -376 0 -367 2 -379 53 -413 13 -8 41 -19 61 -22
52 -10 110 -56 135 -107 54 -112 -5 -235 -129 -272 -70 -21 -85 -31 -104 -70
-14 -29 -16 -81 -16 -376 0 -367 2 -379 53 -413 13 -8 41 -19 61 -22 82 -16
156 -106 156 -191 -1 -81 -59 -160 -137 -184 -77 -23 -93 -33 -114 -66 -19
-31 -20 -46 -17 -194 l3 -160 33 -32 32 -33 301 0 301 0 28 32 c15 17 35 56
44 86 19 64 73 120 133 136 47 13 59 13 106 0 62 -17 115 -72 134 -140 10 -37
27 -69 45 -86 l29 -28 370 0 371 0 28 32 c15 17 35 56 44 86 24 81 107 147
186 147 79 0 162 -66 186 -147 9 -30 29 -69 44 -86 l28 -32 371 0 370 0 29 28
c18 17 35 49 45 86 19 68 72 123 134 140 47 13 59 13 106 0 60 -16 114 -72
133 -136 9 -30 29 -69 44 -86 l28 -32 301 0 301 0 32 33 33 32 3 142 c2 78 1
156 -2 174 -9 45 -49 81 -111 99 -129 37 -189 159 -134 273 25 51 83 97 135
107 20 3 48 14 61 22 51 34 53 46 53 413 0 420 3 409 -120 446 -124 37 -183
160 -129 272 25 51 83 97 135 107 20 3 48 14 61 22 52 34 53 45 53 419 0 422
6 401 -133 444 -123 38 -175 188 -101 292 30 42 67 66 147 94 88 30 87 26 87
422 0 369 -1 381 -53 415 -13 8 -41 19 -61 22 -52 10 -110 56 -135 107 -55
114 5 236 134 273 62 18 102 54 111 99 3 18 4 96 2 174 l-3 142 -33 32 -32 33
-301 0 -301 0 -28 -32 c-15 -17 -35 -56 -44 -86 -24 -81 -107 -147 -186 -147
-79 0 -162 66 -186 147 -9 30 -29 69 -44 86 l-28 32 -372 0 -372 0 -28 -32
c-15 -17 -35 -56 -44 -86 -24 -81 -107 -147 -186 -147 -79 0 -162 66 -186 147
-9 30 -29 69 -44 86 l-28 32 -371 0 -370 0 -29 -28 c-18 -17 -35 -49 -45 -86
-19 -68 -72 -123 -134 -140 -47 -13 -59 -13 -106 0 -60 16 -114 72 -133 136
-9 30 -29 69 -44 86 l-28 32 -289 2 c-158 1 -297 -2 -308 -6z m535 -188 c51
-115 127 -181 243 -209 57 -14 79 -15 129 -6 78 14 137 44 187 92 40 39 91
126 91 155 0 13 37 15 295 15 l294 0 21 -47 c51 -115 127 -181 243 -209 57
-14 79 -15 129 -6 78 14 137 44 187 92 40 39 91 126 91 155 0 13 37 15 300 15
263 0 300 -2 300 -15 0 -29 51 -116 91 -155 50 -48 109 -78 187 -92 50 -9 72
-8 129 6 116 28 192 94 243 209 l21 47 219 0 220 0 0 -93 0 -92 -49 -18 c-68
-24 -153 -104 -188 -175 -23 -48 -27 -70 -28 -142 0 -77 3 -92 33 -152 39 -79
99 -137 178 -169 l54 -23 0 -286 0 -286 -54 -23 c-79 -32 -139 -90 -178 -169
-30 -60 -33 -75 -33 -152 1 -72 5 -94 28 -142 35 -71 120 -151 188 -175 l49
-18 0 -291 0 -290 -54 -23 c-79 -32 -139 -90 -178 -169 -30 -60 -33 -75 -33
-152 1 -72 5 -94 28 -142 35 -71 120 -151 188 -175 l49 -18 0 -291 0 -290 -54
-23 c-79 -32 -139 -90 -178 -169 -30 -60 -33 -75 -33 -152 1 -72 5 -94 28
-142 35 -71 120 -151 188 -175 l49 -18 0 -92 0 -93 -220 0 -219 0 -21 48 c-51
114 -127 180 -243 208 -57 14 -79 15 -129 6 -78 -14 -137 -44 -187 -92 -40
-39 -91 -126 -91 -155 0 -13 -37 -15 -295 -15 l-294 0 -21 48 c-51 114 -127
180 -243 208 -57 14 -79 15 -129 6 -78 -14 -137 -44 -187 -92 -40 -39 -91
-126 -91 -155 0 -13 -37 -15 -300 -15 -263 0 -300 2 -300 15 0 29 -51 116 -91
155 -50 48 -109 78 -187 92 -50 9 -72 8 -129 -6 -116 -28 -192 -94 -243 -209
l-21 -47 -219 0 -220 0 0 93 0 92 49 18 c68 24 153 104 188 175 23 48 27 70
28 142 0 77 -3 92 -33 152 -39 79 -99 137 -178 169 l-54 23 0 290 0 291 52 19
c37 13 70 36 114 80 54 54 65 72 84 135 54 175 -29 353 -196 422 l-54 23 0
290 0 291 52 19 c37 13 70 36 114 80 54 54 65 72 84 135 54 175 -29 353 -196
422 l-54 23 0 286 0 286 54 23 c79 32 139 90 178 169 30 60 33 75 33 152 -1
72 -5 94 -28 142 -35 71 -120 151 -188 175 l-49 18 0 92 0 93 220 0 219 0 21
-47z"/>
<path d="M1115 4375 c-50 -18 -100 -71 -114 -122 -7 -25 -11 -269 -11 -725 l0
-688 -50 0 c-61 0 -90 -24 -90 -74 0 -47 37 -76 96 -76 l44 0 0 -90 0 -90 -50
0 c-61 0 -90 -24 -90 -74 0 -47 37 -76 96 -76 l44 0 0 -727 c0 -500 4 -740 11
-768 15 -52 74 -110 126 -124 29 -8 204 -11 572 -9 l530 3 22 22 c27 27 29 75
4 103 -18 20 -30 20 -555 20 -403 0 -539 3 -548 12 -9 9 -12 184 -12 725 0
657 1 713 17 713 9 0 75 -20 147 -45 257 -88 476 -86 748 5 156 52 238 70 329
70 73 0 109 25 109 76 0 57 -27 74 -114 74 -102 0 -208 -22 -363 -75 -255 -88
-425 -86 -710 7 l-163 53 0 83 c0 70 2 82 17 82 9 0 75 -20 147 -45 257 -88
476 -86 748 5 156 52 238 70 329 70 73 0 109 25 109 76 0 57 -27 74 -114 74
-102 0 -208 -22 -363 -75 -254 -88 -426 -86 -710 7 l-163 53 0 696 c0 527 3
698 12 707 9 9 336 12 1410 12 1371 0 1397 0 1408 -19 6 -12 10 -115 10 -264
0 -232 1 -245 20 -262 28 -25 76 -23 103 4 21 21 22 30 25 266 2 161 -1 259
-8 287 -15 53 -73 112 -125 127 -28 8 -448 11 -1440 11 -1181 -1 -1406 -3
-1440 -15z"/>
<path d="M3460 4034 c-53 -23 -108 -82 -126 -136 -12 -38 -15 -81 -12 -206 3
-139 6 -162 25 -199 57 -106 178 -150 283 -102 56 25 86 53 113 104 18 34 22
61 25 185 5 180 -6 237 -56 293 -21 22 -55 48 -77 58 -48 22 -127 24 -175 3z
m140 -161 c20 -26 21 -37 18 -171 -3 -137 -4 -145 -27 -163 -32 -26 -67 -24
-96 6 -24 23 -25 29 -25 163 0 126 2 142 21 166 29 37 80 36 109 -1z"/>
<path d="M2920 3972 c-126 -132 -192 -336 -144 -450 75 -179 333 -179 408 0
52 123 -25 271 -156 303 -16 4 -28 10 -28 13 0 3 20 27 45 53 52 56 57 88 20
124 -42 43 -71 34 -145 -43z m107 -314 c48 -45 18 -121 -49 -121 -64 0 -92 83
-42 122 34 27 62 27 91 -1z"/>
<path d="M3997 3452 c-16 -17 -17 -120 -17 -1276 0 -848 -3 -1264 -10 -1277
-10 -19 -29 -19 -730 -19 -707 0 -720 0 -740 -20 -27 -27 -26 -81 1 -106 20
-18 49 -19 736 -22 502 -2 727 1 756 9 53 14 112 72 126 126 8 29 10 403 9
1301 -3 1223 -4 1261 -22 1281 -25 27 -86 29 -109 3z"/>
<path d="M1690 2037 c-222 -76 -360 -264 -360 -492 0 -144 57 -272 167 -375
204 -191 514 -186 711 12 102 101 152 222 152 363 0 236 -156 440 -381 500
-83 22 -211 19 -289 -8z m312 -159 c71 -33 138 -100 175 -176 25 -51 28 -68
28 -157 0 -90 -3 -106 -28 -155 -39 -76 -108 -143 -181 -177 -53 -24 -73 -28
-151 -28 -77 0 -98 4 -147 27 -256 120 -294 456 -72 627 72 55 126 71 229 68
73 -2 101 -7 147 -29z"/>
</g>
</svg>
