<?xml version="1.0" standalone="no"?>
<!DOCTYPE svg PUBLIC "-//W3C//DTD SVG 20010904//EN"
 "http://www.w3.org/TR/2001/REC-SVG-20010904/DTD/svg10.dtd">
<svg version="1.0" xmlns="http://www.w3.org/2000/svg"
 width="512.000000pt" height="512.000000pt" viewBox="0 0 512.000000 512.000000"
 preserveAspectRatio="xMidYMid meet">

<g transform="translate(0.000000,512.000000) scale(0.100000,-0.100000)"
fill="#fff" stroke="none">
<path d="M2917 5109 c-123 -19 -584 -370 -723 -551 -87 -113 -152 -258 -190
-430 -24 -105 -24 -355 0 -466 36 -169 103 -330 193 -463 130 -192 221 -248
329 -203 77 32 124 96 125 171 2 62 -23 116 -93 205 -90 113 -158 270 -177
408 -5 36 -7 67 -5 69 1 2 332 -241 735 -540 l732 -544 -114 -9 c-200 -16
-604 11 -1244 84 -569 65 -865 85 -1134 77 -429 -12 -687 -92 -880 -273 -266
-249 -438 -684 -458 -1154 -5 -134 -4 -148 15 -185 57 -111 182 -147 282 -81
60 40 82 92 89 211 4 60 10 99 16 98 15 -2 1876 -990 1887 -1001 9 -9 -20 -29
-218 -159 -63 -41 -95 -95 -96 -162 -1 -134 127 -230 250 -188 185 64 549 373
691 586 159 240 211 405 211 675 0 158 -40 538 -76 718 -10 49 -61 114 -106
134 -99 44 -208 8 -256 -86 -27 -53 -27 -100 6 -320 11 -74 23 -159 26 -188
l5 -53 -28 18 c-16 10 -355 241 -754 513 -594 405 -722 496 -704 502 35 10
278 9 452 -2 205 -13 426 -34 745 -70 816 -93 1204 -110 1505 -65 247 38 432
117 565 242 276 259 521 693 585 1037 15 79 15 91 1 134 -29 86 -95 135 -181
135 -101 0 -169 -60 -199 -176 -8 -33 -17 -61 -20 -64 -4 -4 -1716 977 -1739
997 -5 4 9 18 30 31 107 65 143 115 143 196 -1 126 -99 211 -223 192z m828
-1094 c484 -279 884 -511 889 -516 6 -5 3 -25 -7 -50 -21 -53 -122 -233 -139
-247 -10 -7 -247 145 -938 605 -509 338 -925 620 -925 626 0 6 35 39 78 74
l79 64 41 -24 c23 -14 438 -253 922 -532z m-314 -363 c511 -339 929 -620 929
-623 0 -3 -33 -39 -72 -80 -47 -48 -93 -85 -130 -103 l-58 -28 -117 86 c-65
48 -446 331 -848 629 -832 619 -755 544 -694 677 23 50 37 69 47 65 8 -3 432
-283 943 -623z m-1579 -1794 l899 -613 -6 -68 c-4 -57 -34 -170 -48 -184 -3
-2 -451 274 -998 613 -547 339 -1007 625 -1022 634 l-28 17 48 57 c63 75 185
153 242 155 7 1 418 -275 913 -611z m-225 -437 l973 -603 -46 -58 c-25 -32
-54 -66 -65 -75 -17 -17 -65 7 -1034 521 -728 386 -1015 543 -1015 555 0 26
58 213 85 274 l24 56 53 -34 c29 -18 491 -304 1025 -636z"/>
</g>
</svg>
