<?xml version="1.0" standalone="no"?>
<!DOCTYPE svg PUBLIC "-//W3C//DTD SVG 20010904//EN"
 "http://www.w3.org/TR/2001/REC-SVG-20010904/DTD/svg10.dtd">
<svg version="1.0" xmlns="http://www.w3.org/2000/svg"
 width="861.000000pt" height="887.000000pt" viewBox="0 0 861.000000 887.000000"
 preserveAspectRatio="xMidYMid meet">

<g transform="translate(0.000000,887.000000) scale(0.100000,-0.100000)"
fill="#fff" stroke="none">
<path d="M1475 8843 c-268 -32 -547 -131 -752 -266 -349 -230 -585 -578 -673
-995 -28 -129 -37 -393 -20 -539 54 -471 285 -811 671 -992 192 -90 335 -121
558 -121 375 0 656 101 881 316 104 99 161 175 215 288 129 267 133 573 10
816 -128 253 -439 360 -685 235 -103 -52 -169 -132 -196 -236 -28 -108 -3
-181 97 -284 70 -72 99 -123 99 -172 0 -44 -40 -113 -83 -144 -33 -24 -50 -29
-97 -29 -80 0 -142 34 -228 125 -124 130 -178 277 -169 465 8 188 82 347 221
477 157 146 318 211 547 220 144 6 244 -9 371 -58 303 -117 529 -432 579 -806
15 -114 6 -328 -21 -457 -74 -370 -267 -649 -601 -874 -127 -85 -119 -61 -119
-373 l0 -269 2213 2 2212 3 1 265 c1 193 -2 273 -11 296 -9 23 -41 50 -116 99
-291 190 -504 514 -584 890 -23 108 -24 330 -2 445 34 172 118 375 205 493
124 168 313 290 514 331 112 23 292 21 398 -4 347 -84 599 -378 600 -703 0
-234 -125 -458 -307 -551 -40 -20 -134 -21 -171 -2 -56 29 -102 101 -102 161
0 55 25 103 90 171 142 147 149 307 20 435 -184 185 -486 183 -686 -3 -174
-163 -249 -516 -169 -793 113 -391 444 -672 893 -762 136 -27 387 -24 521 5
265 59 457 159 624 325 114 114 178 203 247 342 102 205 136 380 127 644 -9
272 -63 486 -182 726 -215 433 -593 719 -1099 832 l-121 28 -2845 1 c-1565 1
-2858 0 -2875 -3z"/>
<path d="M2087 4913 c-4 -3 -7 -114 -7 -245 l0 -238 2210 0 2210 0 -2 243 -3
242 -2201 3 c-1210 1 -2204 -1 -2207 -5z"/>
<path d="M2090 2095 l0 -2085 370 0 370 0 0 1835 0 1835 240 0 240 0 2 -1832
3 -1833 373 -3 372 -2 0 1835 0 1835 240 0 240 0 0 -1835 0 -1835 375 0 375 0
0 1835 0 1835 240 0 240 0 0 -1835 0 -1835 365 0 365 0 0 2085 0 2085 -2205 0
-2205 0 0 -2085z"/>
</g>
</svg>
