<?xml version="1.0" standalone="no"?>
<!DOCTYPE svg PUBLIC "-//W3C//DTD SVG 20010904//EN"
 "http://www.w3.org/TR/2001/REC-SVG-20010904/DTD/svg10.dtd">
<svg version="1.0" xmlns="http://www.w3.org/2000/svg"
 width="1335.000000pt" height="1335.000000pt" viewBox="0 0 1335.000000 1335.000000"
 preserveAspectRatio="xMidYMid meet">

<g transform="translate(0.000000,1335.000000) scale(0.100000,-0.100000)"
fill="#fff" stroke="none">
<path d="M2088 13174 c-854 -922 -1499 -1965 -1823 -2949 -500 -1517 -253
-2857 708 -3851 335 -347 758 -650 1186 -851 74 -34 136 -61 138 -59 2 1 -28
88 -66 192 -402 1106 -581 2020 -557 2849 16 562 98 1059 289 1735 l52 185 7
-250 c28 -1051 139 -1923 355 -2800 125 -509 304 -1049 458 -1383 l35 -76 61
60 c34 32 106 113 161 179 554 657 938 1468 1073 2267 39 234 56 439 56 698 1
334 -27 605 -93 905 -209 958 -888 2161 -1855 3284 l-28 33 -157 -168z"/>
<path d="M6880 7869 c-599 -46 -1143 -190 -1611 -424 -462 -232 -877 -570
-1210 -987 -447 -559 -777 -1296 -933 -2081 -25 -125 -69 -417 -64 -423 2 -1
75 66 163 149 586 552 1196 1002 1704 1257 392 196 1022 388 1581 479 394 65
692 86 1100 78 598 -12 1106 -96 1624 -267 139 -47 466 -175 466 -183 0 -1
-249 -2 -552 -2 -691 0 -1081 -22 -1598 -91 -677 -89 -1117 -221 -1670 -498
-1178 -590 -2301 -1628 -3346 -3091 -216 -303 -587 -863 -639 -965 -38 -75
-55 -154 -55 -257 0 -166 65 -314 188 -423 99 -88 214 -130 358 -130 159 0
307 57 418 160 60 56 73 77 197 318 552 1072 1058 1989 1118 2026 5 4 36 -6
68 -22 161 -81 557 -225 839 -306 829 -237 1743 -359 2699 -359 471 -1 736 30
1154 134 1293 322 2612 1231 3797 2619 241 283 664 842 664 878 0 5 -69 67
-152 137 -771 643 -1802 1255 -2778 1650 -816 330 -1632 531 -2480 611 -195
18 -876 27 -1050 13z"/>
</g>
</svg>
