<svg height="512pt" viewBox="0 -54 512.0004 512" fill="#fff" width="512pt" xmlns="http://www.w3.org/2000/svg"><path d="m494.125 145.382812c29.769531-53.574218 16.890625-100.9375.691406-131.382812-4.777344-8.980469-14.105468-14.339844-24.292968-13.984375-10.09375.351563-18.902344 6.269531-22.992188 15.4375-4.953125 11.125-12.59375 20.4375-18.769531 26.808594-2.847657-.65625-25.128907-6.402344-67.503907.683593-20.375-5.671874-40.148437-7.324218-55.117187-7.511718-18.5625-7.800782-36.566406-11.902344-51.011719-14.042969-11.515625-4.792969-23.574218-7.273437-35.914062-7.273437-33.363282 0-65.066406 18.394531-89.273438 51.789062-23.148437 31.9375-37.574218 75.050781-40.71875 121.570312-4.261718 2.484376-8.296875 5.375-12.042968 8.652344-.117188-.25-.246094-.488281-.359376-.738281-.03125-.066406-.066406-.132813-.097656-.199219-.1875-.375-4.703125-9.277344-13.320312-16.308594-11.980469-9.773437-26.460938-11.496093-40.773438-4.855468-14.316406 6.644531-22.347656 18.816406-22.6210935 34.277344-.1953125 11.121093 3.6874995 20.316406 3.8554685 20.703124.027344.066407.058594.132813.089844.203126 9.71875 20.945312 11.75 44.492187 5.71875 66.304687-5.203125 18.808594-3.535156 38.925781 4.6875 56.652344 7.734375 16.675781 21.152344 30.441406 37.777344 38.765625 11.699219 5.855468 29.8125 9.449218 52.679687 7.460937 7.070313 3.703125 14.675782 5.660157 22.542969 5.660157 9.519531 0 18.636719-2.8125 27.101563-8.363282 5.898437-3.867187 13.523437-3.867187 19.425781 0 8.460937 5.550782 17.578125 8.363282 27.097656 8.363282 6.8125 0 13.421875-1.472657 19.660156-4.261719 16.980469-.261719 33.402344-5.214844 48.597657-14.445313 59.90625-18.867187 86.019531-50.148437 87.242187-51.335937l.035156.210937c21.542969-12.199218 73.894531-43.886718 93.390625-98.707031 18.050782-19.332031 40.832032-51 44.214844-90.132813zm-32.894531-123.824218c1.761719-3.949219 5.429687-6.398438 9.8125-6.550782 4.488281-.160156 8.4375 2.097657 10.53125 6.035157 11.738281 22.066406 21.527343 54.089843 10.542969 90.933593-1.925782-9.253906-5.066407-18.796874-9.660157-28.574218-7.875-16.753906-20.589843-28.839844-37.941406-36.128906 7.167969-8.246094 12.769531-16.863282 16.714844-25.714844zm-43.511719 33.867187c25 3.75 42.214844 15.308594 51.164062 34.355469 12.480469 26.554688 14.019532 53.742188 4.578126 80.800781-3.542969 10.167969-8.394532 19.546875-13.707032 27.941407 2.648438-20.3125 1.121094-41.496094-4.625-63.441407-9.632812-36.777343-31.257812-63.929687-64.296875-80.761719 8.511719-.4375 17.753907-.261718 26.886719 1.105469zm-275.632812 19.28125c21.308593-29.398437 48.699218-45.589843 77.128906-45.589843 63.773437 0 115.65625 79.785156 115.65625 177.851562 0 85.03125-39.007813 156.304688-90.953125 173.753906 17.6875-24.921875 18.667969-62.9375 18.597656-64.550781 1.203125-1.609375 31.460937-42.859375 31.460937-109.203125 0-39.507812-10.199218-77.515625-27.984374-104.28125-3.46875-5.21875-9.167969-12.828125-16.613282-19.429688-9.910156-8.789062-20.058594-13.246093-30.164062-13.246093-10.105469 0-20.253906 4.457031-30.164063 13.246093-7.445312 6.601563-13.144531 14.210938-16.609375 19.429688-13.453125 20.246094-22.632812 47.066406-26.25 76.273438-5.773437-1.355469-11.742187-2.066407-17.816406-2.066407-8.070312 0-16 1.261719-23.535156 3.65625 3.964844-40.671875 17.035156-77.960937 37.246094-105.84375zm-13.710938 117.183594c21.058594 0 40.605469 10.484375 52.285156 28.046875 1.445313 2.171875 5.363282 5.449219 10.398438 2.089844 3.441406-2.300782 4.382812-6.949219 2.089844-10.398438-8.175782-12.292968-19.46875-21.78125-32.453126-27.714844 3.050782-28.140624 11.578126-53.875 24.234376-72.925781 4.046874-6.09375 18.484374-25.976562 34.28125-25.976562 15.800781 0 30.238281 19.882812 34.285156 25.976562 16.191406 24.367188 25.480468 59.351563 25.480468 95.980469 0 32.097656-7.132812 62.933594-19.796874 86.46875-2.898438-11.1875-7.566407-21.472656-13.816407-30.1875-11.671875-16.28125-27.433593-25.25-44.378906-25.25-9.523437 0-18.640625 2.8125-27.101563 8.363281-5.898437 3.867188-13.527343 3.867188-19.425781 0-8.460937-5.550781-19.648437-11.621093-37.171875-7.265625-13.160156-7.605468-24.152344-17.683594-32.414062-29.648437 11.648437-11.207031 27.210937-17.558594 43.503906-17.558594zm-100.410156 153.964844c-6.730469-14.5-8.09375-30.960938-3.839844-46.34375 6.964844-25.183594 4.65625-52.332031-6.5-76.464844-.3125-.78125-10.453125-22.308594 11.316406-35.414063 21.765625-13.105468 33.988282 13.558594 34.339844 14.214844 8.246094 17.714844 20.996094 32.832032 37.230469 44.304688-6.472657 4.191406-12.398438 9.933594-17.535157 17.097656-11.132812 15.527344-17.261718 36.046875-17.261718 57.773438 0 21.730468 6.085937 48.925781 22.023437 63.753906-25.214843-.742188-48.988281-15.675782-59.773437-38.921875zm154.144531 37.292969c-5.449219-3.574219-11.691406-5.359376-17.9375-5.359376-6.242187 0-12.488281 1.785157-17.9375 5.359376-5.976563 3.917968-12.328125 5.90625-18.875 5.90625-25.722656 0-46.648437-30.515626-46.648437-68.027344 0-37.511719 20.925781-68.03125 46.648437-68.03125 6.546875 0 12.898437 1.988281 18.875 5.90625 10.894531 7.144531 24.976563 7.144531 35.875 0 5.976563-3.917969 12.324219-5.90625 18.875-5.90625 25.722656 0 46.644531 30.519531 46.644531 68.03125 0 37.511718-20.925781 68.027344-46.644531 68.027344-6.546875 0-12.898437-1.988282-18.875-5.90625zm236.925781-122.84375c-9.726562 13.601562-21.144531 25.140624-32.300781 34.617187 11.96875-21.351563 19.125-45.292969 21.347656-71.632813.351563-4.125-2.714843-7.753906-6.839843-8.101562s-7.757813 2.714844-8.105469 6.84375c-5.894531 69.871094-48.816407 109.636719-89.027344 131.765625 2.90625-3.671875 5.726563-7.535156 8.433594-11.613281 24.070312-36.226563 37.328125-84.246094 37.328125-135.214844s-13.257813-98.988281-37.328125-135.210938c-6.601563-9.933593-13.808594-18.664062-21.5-26.140624 45.820312 16.304687 96.675781 54.925781 102.351562 145.695312.246094 3.972656 3.546875 7.03125 7.476563 7.03125.15625 0 .316406-.003906.476562-.015625 4.132813-.257813 7.273438-3.820313 7.015625-7.953125-3.558593-56.949219-28.980469-111.171875-69.695312-137.109375 39.914062 6.652344 86.683593 27.316406 101.949219 85.613281 11.605468 44.3125 4.34375 85.164063-21.582032 121.425782zm0 0"/></svg>