<?xml version="1.0" standalone="no"?>
<!DOCTYPE svg PUBLIC "-//W3C//DTD SVG 20010904//EN"
 "http://www.w3.org/TR/2001/REC-SVG-20010904/DTD/svg10.dtd">
<svg version="1.0" xmlns="http://www.w3.org/2000/svg"
 width="980.000000pt" height="838.000000pt" viewBox="0 0 980.000000 838.000000"
 preserveAspectRatio="xMidYMid meet">

<g transform="translate(0.000000,838.000000) scale(0.100000,-0.100000)"
fill="#000000" stroke="none">
<path d="M4400 8374 c-430 -53 -799 -297 -1013 -669 -292 -507 -204 -1163 212
-1582 209 -210 465 -339 761 -383 41 -6 76 -12 77 -14 3 -3 113 -1760 113
-1807 0 -24 -5 -27 -62 -39 -159 -31 -385 -125 -537 -224 -209 -135 -402 -339
-522 -551 -24 -41 -47 -75 -53 -75 -12 0 -1049 381 -1058 390 -5 3 -4 51 2
105 31 334 -94 679 -334 919 -336 337 -847 437 -1279 251 -243 -104 -465 -314
-586 -553 -98 -194 -141 -454 -111 -667 72 -505 447 -899 950 -996 100 -19
329 -17 430 5 307 66 577 248 744 503 l58 89 532 -196 c367 -136 531 -201 530
-211 -1 -8 -9 -54 -19 -104 -128 -690 238 -1405 884 -1730 113 -56 297 -117
426 -141 155 -29 463 -27 609 4 431 93 797 339 1033 697 37 55 70 104 74 109
4 4 263 -96 576 -224 l570 -232 -8 -46 c-13 -81 -9 -194 10 -287 89 -433 480
-736 916 -712 633 36 1027 697 754 1266 -135 284 -388 464 -705 503 -181 22
-395 -26 -555 -124 -89 -55 -200 -154 -244 -218 -18 -26 -35 -40 -44 -37 -9 2
-267 107 -574 232 -517 211 -558 230 -552 249 3 12 15 66 27 121 29 138 32
433 4 580 -24 129 -82 308 -137 421 -24 49 -45 92 -47 96 -2 5 1751 1289 1813
1328 18 11 29 7 85 -33 311 -215 716 -247 1057 -82 281 136 483 387 564 700
29 114 33 347 7 460 -92 402 -378 695 -788 808 -62 16 -104 20 -240 20 -146 0
-176 -3 -260 -25 -353 -95 -625 -351 -739 -693 -41 -125 -55 -234 -48 -379 8
-160 32 -254 104 -409 31 -66 35 -80 23 -87 -8 -5 -415 -301 -905 -658 l-890
-650 -60 58 c-212 202 -446 336 -715 410 -91 25 -240 50 -297 50 -42 0 -42 0
-47 43 -3 23 -28 420 -56 882 -27 462 -52 857 -54 878 -4 33 -2 38 22 43 165
37 376 134 513 238 151 114 304 297 389 466 41 82 97 247 117 348 26 130 23
375 -5 509 -113 529 -518 931 -1047 1039 -70 14 -329 26 -395 18z m358 -385
c342 -78 614 -338 712 -680 28 -94 38 -306 20 -415 -60 -378 -350 -684 -738
-781 -106 -27 -332 -24 -442 6 -353 94 -618 363 -707 717 -27 109 -24 344 5
454 138 511 641 817 1150 699z m4161 -2075 c31 -8 94 -33 141 -56 120 -58 240
-178 298 -298 55 -112 75 -194 75 -310 1 -313 -208 -583 -513 -666 -86 -23
-252 -24 -340 -1 -241 63 -432 255 -497 497 -23 87 -23 253 0 340 74 276 307
476 597 513 52 7 176 -3 239 -19z m-7563 -1514 c292 -73 527 -317 589 -612 32
-148 12 -344 -48 -480 -79 -178 -236 -335 -412 -414 -139 -61 -334 -81 -485
-49 -293 62 -537 298 -610 589 -25 99 -27 266 -4 369 20 94 100 257 162 331
104 125 269 228 423 266 105 26 282 26 385 0z m7053 -3005 c95 -25 162 -65
236 -139 130 -131 181 -301 144 -478 -36 -174 -184 -335 -357 -388 -76 -24
-211 -27 -287 -6 -257 68 -418 310 -384 576 25 204 181 380 382 435 68 18 198
18 266 0z"/>
</g>
</svg>
