<?xml version="1.0" standalone="no"?>
<!DOCTYPE svg PUBLIC "-//W3C//DTD SVG 20010904//EN"
 "http://www.w3.org/TR/2001/REC-SVG-20010904/DTD/svg10.dtd">
<svg version="1.0" xmlns="http://www.w3.org/2000/svg"
 width="512.000000pt" height="512.000000pt" viewBox="0 0 512.000000 512.000000"
 preserveAspectRatio="xMidYMid meet">

<g transform="translate(0.000000,512.000000) scale(0.100000,-0.100000)"
fill="#fff" stroke="none">
<path d="M1955 5113 c-392 -51 -742 -272 -882 -558 -20 -41 -34 -57 -53 -61
-358 -78 -653 -367 -765 -749 -32 -111 -55 -271 -54 -390 0 -211 60 -487 155
-712 l27 -62 -31 -48 c-94 -147 -135 -287 -135 -463 0 -148 15 -216 76 -340
34 -70 57 -101 136 -180 64 -63 120 -108 167 -134 l72 -40 -18 -52 c-34 -99
-45 -196 -33 -292 14 -110 42 -184 105 -278 112 -168 306 -287 538 -331 l91
-17 42 -79 c45 -86 130 -175 212 -223 118 -69 284 -104 493 -104 204 0 295 29
406 131 l57 52 42 -41 c60 -58 132 -100 212 -124 60 -18 87 -20 195 -15 321
13 595 178 723 433 l36 71 101 12 c511 62 736 358 598 789 -11 35 -18 65 -17
66 2 2 32 19 67 39 101 59 169 114 227 184 212 257 229 622 41 912 l-48 74 26
61 c68 161 117 340 142 521 45 327 -26 658 -194 907 -60 88 -182 214 -261 267
-101 69 -243 131 -351 155 -19 4 -33 20 -53 61 -124 253 -411 457 -757 537
-125 29 -402 36 -490 13 -86 -22 -152 -59 -200 -112 l-40 -43 -37 41 c-86 95
-194 130 -398 128 -77 -1 -153 -4 -170 -6z m313 -218 c65 -20 115 -62 137
-118 45 -112 45 -93 45 -2263 0 -1799 -2 -2057 -15 -2101 -20 -68 -88 -143
-157 -174 -48 -22 -67 -24 -188 -24 -211 0 -339 37 -436 127 -57 53 -79 90
-113 190 l-28 83 -99 6 c-128 9 -179 22 -291 75 -180 86 -284 223 -292 385 -4
98 14 161 85 302 55 107 55 107 32 116 -284 109 -389 184 -463 330 -52 104
-70 246 -45 361 38 170 150 325 319 439 144 98 273 137 421 127 176 -12 324
-60 455 -150 54 -37 76 -46 109 -46 109 1 136 123 44 203 -52 45 -208 126
-298 155 -172 55 -401 69 -546 32 -93 -23 -258 -102 -335 -160 -29 -22 -56
-40 -60 -40 -9 0 -72 198 -101 315 -18 77 -22 119 -22 290 -1 238 13 304 99
480 118 243 318 403 562 451 43 8 88 17 100 19 16 4 27 21 43 69 74 224 319
424 610 497 157 40 340 50 428 24z m859 5 c366 -46 674 -258 763 -526 16 -48
27 -65 43 -69 12 -2 57 -11 100 -19 244 -48 444 -208 562 -451 86 -176 100
-242 99 -480 0 -192 -1 -205 -33 -329 -42 -165 -79 -267 -103 -284 -10 -8 -32
-43 -48 -80 -73 -160 -208 -274 -407 -343 -80 -27 -270 -59 -356 -59 -118 0
-173 -42 -163 -123 10 -85 52 -101 232 -87 285 22 496 95 666 231 35 28 73 63
86 80 13 16 28 29 33 29 6 0 23 -28 39 -63 98 -209 75 -425 -63 -590 -72 -86
-158 -141 -327 -207 -47 -18 -87 -35 -89 -36 -2 -2 19 -56 47 -121 62 -144 82
-217 82 -303 0 -190 -161 -306 -474 -341 l-103 -11 -95 44 c-127 60 -213 140
-267 248 -39 77 -49 121 -70 294 -12 101 -36 129 -107 129 -41 0 -51 -4 -77
-33 l-30 -33 6 -111 c16 -311 148 -527 410 -671 l67 -37 -21 -37 c-95 -170
-325 -295 -544 -295 -114 -1 -175 24 -240 96 -81 91 -75 -96 -75 2202 0 2188
-1 2160 48 2267 51 114 171 149 409 119z"/>
<path d="M1888 4083 c-28 -18 -42 -44 -54 -103 -10 -54 -41 -108 -90 -157 -75
-75 -188 -115 -367 -132 -76 -6 -103 -13 -118 -28 -42 -41 -41 -120 2 -159 19
-17 36 -19 143 -18 183 2 324 47 452 144 177 133 257 416 131 459 -42 15 -67
13 -99 -6z"/>
<path d="M1071 2036 c-48 -27 -64 -91 -36 -145 15 -30 61 -53 130 -65 22 -4
77 -25 123 -47 115 -53 203 -141 261 -260 48 -100 68 -183 80 -327 6 -79 12
-109 28 -130 40 -54 126 -53 167 1 18 25 21 41 19 120 -7 432 -239 753 -611
848 -87 22 -128 23 -161 5z"/>
<path d="M3340 3887 c-73 -28 -85 -137 -32 -284 101 -275 343 -461 676 -518
107 -18 232 -19 266 -2 37 18 60 70 50 114 -15 64 -33 73 -171 88 -68 7 -153
20 -188 30 -244 63 -420 240 -450 450 -8 55 -20 82 -48 106 -24 21 -71 29
-103 16z"/>
</g>
</svg>
