<?xml version="1.0" standalone="no"?>
<!DOCTYPE svg PUBLIC "-//W3C//DTD SVG 20010904//EN"
 "http://www.w3.org/TR/2001/REC-SVG-20010904/DTD/svg10.dtd">
<svg version="1.0" xmlns="http://www.w3.org/2000/svg"
 width="512.000000pt" height="512.000000pt" viewBox="0 0 512.000000 512.000000"
 preserveAspectRatio="xMidYMid meet">

<g transform="translate(0.000000,512.000000) scale(0.100000,-0.100000)"
fill="#fff" stroke="none">
<path d="M2380 5114 c-19 -2 -78 -9 -130 -14 -638 -70 -1267 -418 -1681 -933
-301 -374 -483 -798 -550 -1287 -18 -125 -18 -515 0 -640 105 -762 511 -1409
1146 -1826 837 -550 1954 -550 2789 0 589 387 996 994 1120 1670 156 845 -103
1682 -705 2285 -398 398 -880 639 -1449 726 -100 15 -464 28 -540 19z m580
-198 c80 -14 181 -35 225 -48 l80 -23 3 -838 c1 -461 -1 -836 -5 -834 -5 3
-244 141 -533 307 -289 167 -680 393 -870 503 -190 109 -443 256 -564 325
l-218 126 28 23 c52 42 217 150 299 194 265 146 566 245 840 278 50 6 104 13
120 15 17 3 125 3 240 1 170 -3 238 -8 355 -29z m582 -177 c265 -116 510 -290
733 -520 211 -218 354 -429 475 -704 77 -175 152 -418 134 -435 -11 -10 -1433
-830 -1439 -830 -3 0 -5 569 -5 1265 0 696 2 1265 5 1265 2 0 46 -18 97 -41z
m-1739 -918 c317 -184 577 -337 577 -340 0 -7 -2154 -1254 -2176 -1259 -34 -8
-41 488 -10 688 77 497 297 943 639 1297 l108 111 142 -82 c78 -45 402 -232
720 -415z m1124 -649 l343 -197 0 -415 0 -415 -343 -197 c-188 -108 -349 -199
-357 -203 -9 -3 -140 67 -315 168 -165 95 -324 187 -352 203 l-53 29 0 415 0
415 53 29 c28 16 187 108 352 203 178 103 306 171 315 168 8 -4 169 -95 357
-203z m2010 -339 c4 -38 8 -171 7 -298 -1 -200 -5 -249 -27 -375 -86 -484
-298 -904 -630 -1247 l-108 -112 -112 66 c-62 36 -231 134 -377 218 -748 431
-945 546 -948 553 -1 4 120 79 270 165 150 86 638 368 1083 626 446 258 815
469 822 470 7 1 15 -25 20 -66z m-3257 -1228 c0 -696 -3 -1265 -6 -1265 -3 0
-47 19 -97 42 -291 134 -508 289 -732 519 -229 236 -386 478 -510 786 -35 85
-105 312 -105 338 0 7 104 73 232 146 127 74 450 261 717 416 267 155 489 282
494 282 4 1 7 -568 7 -1264z m1265 -285 c594 -342 1084 -626 1088 -630 5 -4
-35 -39 -90 -78 -319 -227 -678 -369 -1073 -424 -145 -20 -518 -17 -655 6
-119 19 -293 58 -337 75 l-28 11 0 835 c0 460 3 834 8 832 4 -2 493 -285 1087
-627z"/>
</g>
</svg>
